<mxfile host="Electron" agent="Mozilla/5.0 (Macintosh; Intel Mac OS X 10_15_7) AppleWebKit/537.36 (KHTML, like Gecko) draw.io/26.1.1 Chrome/132.0.6834.210 Electron/34.3.3 Safari/537.36" version="26.1.1">
  <diagram id="mDiQmIHSE6wYCRQK2CIN" name="Page-1">
    <mxGraphModel dx="1114" dy="999" grid="1" gridSize="10" guides="1" tooltips="1" connect="1" arrows="1" fold="1" page="1" pageScale="1" pageWidth="850" pageHeight="1100" math="0" shadow="0">
      <root>
        <mxCell id="0" />
        <mxCell id="1" parent="0" />
        <mxCell id="2" value="Python设计哲学与最佳实践" style="text;html=1;strokeColor=none;fillColor=none;align=center;verticalAlign=middle;whiteSpace=wrap;rounded=0;fontSize=24;fontStyle=1" parent="1" vertex="1">
          <mxGeometry x="220" y="20" width="410" height="30" as="geometry" />
        </mxCell>
        <mxCell id="3" value="Python之禅" style="ellipse;whiteSpace=wrap;html=1;aspect=fixed;fontSize=16;fillColor=#dae8fc;strokeColor=#6c8ebf;fontStyle=1" parent="1" vertex="1">
          <mxGeometry x="370" y="60" width="110" height="110" as="geometry" />
        </mxCell>
        <mxCell id="4" value="美优于丑" style="rounded=1;whiteSpace=wrap;html=1;fillColor=#dae8fc;strokeColor=#6c8ebf;" parent="1" vertex="1">
          <mxGeometry x="160" y="140" width="100" height="40" as="geometry" />
        </mxCell>
        <mxCell id="5" value="显式优于隐式" style="rounded=1;whiteSpace=wrap;html=1;fillColor=#dae8fc;strokeColor=#6c8ebf;" parent="1" vertex="1">
          <mxGeometry x="160" y="190" width="100" height="40" as="geometry" />
        </mxCell>
        <mxCell id="6" value="简单优于复杂" style="rounded=1;whiteSpace=wrap;html=1;fillColor=#dae8fc;strokeColor=#6c8ebf;" parent="1" vertex="1">
          <mxGeometry x="160" y="240" width="100" height="40" as="geometry" />
        </mxCell>
        <mxCell id="7" value="复杂优于繁琐" style="rounded=1;whiteSpace=wrap;html=1;fillColor=#dae8fc;strokeColor=#6c8ebf;" parent="1" vertex="1">
          <mxGeometry x="160" y="290" width="100" height="40" as="geometry" />
        </mxCell>
        <mxCell id="8" value="扁平优于嵌套" style="rounded=1;whiteSpace=wrap;html=1;fillColor=#dae8fc;strokeColor=#6c8ebf;" parent="1" vertex="1">
          <mxGeometry x="160" y="340" width="100" height="40" as="geometry" />
        </mxCell>
        <mxCell id="9" value="间隔优于紧凑" style="rounded=1;whiteSpace=wrap;html=1;fillColor=#dae8fc;strokeColor=#6c8ebf;" parent="1" vertex="1">
          <mxGeometry x="290" y="190" width="100" height="40" as="geometry" />
        </mxCell>
        <mxCell id="10" value="可读性很重要" style="rounded=1;whiteSpace=wrap;html=1;fillColor=#dae8fc;strokeColor=#6c8ebf;" parent="1" vertex="1">
          <mxGeometry x="290" y="240" width="100" height="40" as="geometry" />
        </mxCell>
        <mxCell id="11" value="特例不足以打破规则" style="rounded=1;whiteSpace=wrap;html=1;fillColor=#dae8fc;strokeColor=#6c8ebf;" parent="1" vertex="1">
          <mxGeometry x="290" y="290" width="100" height="40" as="geometry" />
        </mxCell>
        <mxCell id="12" value="错误不应被忽略" style="rounded=1;whiteSpace=wrap;html=1;fillColor=#dae8fc;strokeColor=#6c8ebf;" parent="1" vertex="1">
          <mxGeometry x="290" y="340" width="100" height="40" as="geometry" />
        </mxCell>
        <mxCell id="13" value="实用性胜过纯粹性" style="rounded=1;whiteSpace=wrap;html=1;fillColor=#dae8fc;strokeColor=#6c8ebf;" parent="1" vertex="1">
          <mxGeometry x="420" y="190" width="120" height="40" as="geometry" />
        </mxCell>
        <mxCell id="14" value="现在优于永不" style="rounded=1;whiteSpace=wrap;html=1;fillColor=#dae8fc;strokeColor=#6c8ebf;" parent="1" vertex="1">
          <mxGeometry x="420" y="240" width="120" height="40" as="geometry" />
        </mxCell>
        <mxCell id="15" value="做优于不做" style="rounded=1;whiteSpace=wrap;html=1;fillColor=#dae8fc;strokeColor=#6c8ebf;" parent="1" vertex="1">
          <mxGeometry x="420" y="290" width="120" height="40" as="geometry" />
        </mxCell>
        <mxCell id="16" value="命名空间是个绝妙的主意" style="rounded=1;whiteSpace=wrap;html=1;fillColor=#dae8fc;strokeColor=#6c8ebf;" parent="1" vertex="1">
          <mxGeometry x="420" y="340" width="120" height="40" as="geometry" />
        </mxCell>
        <mxCell id="17" value="" style="endArrow=none;html=1;fontSize=12;entryX=0;entryY=0.5;entryDx=0;entryDy=0;exitX=1;exitY=0.5;exitDx=0;exitDy=0;" parent="1" source="4" target="3" edge="1">
          <mxGeometry width="50" height="50" relative="1" as="geometry">
            <mxPoint x="400" y="280" as="sourcePoint" />
            <mxPoint x="450" y="230" as="targetPoint" />
          </mxGeometry>
        </mxCell>
        <mxCell id="18" value="" style="endArrow=none;html=1;fontSize=12;entryX=0;entryY=1;entryDx=0;entryDy=0;exitX=1;exitY=0.5;exitDx=0;exitDy=0;" parent="1" source="5" target="3" edge="1">
          <mxGeometry width="50" height="50" relative="1" as="geometry">
            <mxPoint x="270" y="170" as="sourcePoint" />
            <mxPoint x="380" y="125" as="targetPoint" />
          </mxGeometry>
        </mxCell>
        <mxCell id="19" value="" style="endArrow=none;html=1;fontSize=12;entryX=0;entryY=1;entryDx=0;entryDy=0;exitX=1;exitY=0.5;exitDx=0;exitDy=0;" parent="1" source="6" target="3" edge="1">
          <mxGeometry width="50" height="50" relative="1" as="geometry">
            <mxPoint x="270" y="220" as="sourcePoint" />
            <mxPoint x="396.21320343559637" y="160.78679656440363" as="targetPoint" />
          </mxGeometry>
        </mxCell>
        <mxCell id="20" value="" style="endArrow=none;html=1;fontSize=12;entryX=0.5;entryY=1;entryDx=0;entryDy=0;exitX=1;exitY=0.5;exitDx=0;exitDy=0;" parent="1" source="7" target="3" edge="1">
          <mxGeometry width="50" height="50" relative="1" as="geometry">
            <mxPoint x="270" y="270" as="sourcePoint" />
            <mxPoint x="396.21320343559637" y="160.78679656440363" as="targetPoint" />
          </mxGeometry>
        </mxCell>
        <mxCell id="21" value="" style="endArrow=none;html=1;fontSize=12;entryX=0.5;entryY=1;entryDx=0;entryDy=0;exitX=1;exitY=0.5;exitDx=0;exitDy=0;" parent="1" source="8" target="3" edge="1">
          <mxGeometry width="50" height="50" relative="1" as="geometry">
            <mxPoint x="270" y="320" as="sourcePoint" />
            <mxPoint x="435" y="180" as="targetPoint" />
          </mxGeometry>
        </mxCell>
        <mxCell id="22" value="" style="endArrow=none;html=1;fontSize=12;entryX=0.5;entryY=1;entryDx=0;entryDy=0;exitX=0.5;exitY=0;exitDx=0;exitDy=0;" parent="1" source="9" target="3" edge="1">
          <mxGeometry width="50" height="50" relative="1" as="geometry">
            <mxPoint x="270" y="370" as="sourcePoint" />
            <mxPoint x="435" y="180" as="targetPoint" />
          </mxGeometry>
        </mxCell>
        <mxCell id="23" value="" style="endArrow=none;html=1;fontSize=12;entryX=0.5;entryY=1;entryDx=0;entryDy=0;exitX=0.5;exitY=0;exitDx=0;exitDy=0;" parent="1" source="10" target="3" edge="1">
          <mxGeometry width="50" height="50" relative="1" as="geometry">
            <mxPoint x="350" y="200" as="sourcePoint" />
            <mxPoint x="435" y="180" as="targetPoint" />
          </mxGeometry>
        </mxCell>
        <mxCell id="24" value="" style="endArrow=none;html=1;fontSize=12;entryX=0.5;entryY=1;entryDx=0;entryDy=0;exitX=0.5;exitY=0;exitDx=0;exitDy=0;" parent="1" source="11" target="3" edge="1">
          <mxGeometry width="50" height="50" relative="1" as="geometry">
            <mxPoint x="350" y="250" as="sourcePoint" />
            <mxPoint x="435" y="180" as="targetPoint" />
          </mxGeometry>
        </mxCell>
        <mxCell id="25" value="" style="endArrow=none;html=1;fontSize=12;entryX=0.5;entryY=1;entryDx=0;entryDy=0;exitX=0.5;exitY=0;exitDx=0;exitDy=0;" parent="1" source="12" target="3" edge="1">
          <mxGeometry width="50" height="50" relative="1" as="geometry">
            <mxPoint x="350" y="300" as="sourcePoint" />
            <mxPoint x="435" y="180" as="targetPoint" />
          </mxGeometry>
        </mxCell>
        <mxCell id="26" value="" style="endArrow=none;html=1;fontSize=12;entryX=1;entryY=1;entryDx=0;entryDy=0;exitX=0.5;exitY=0;exitDx=0;exitDy=0;" parent="1" source="13" target="3" edge="1">
          <mxGeometry width="50" height="50" relative="1" as="geometry">
            <mxPoint x="350" y="350" as="sourcePoint" />
            <mxPoint x="435" y="180" as="targetPoint" />
          </mxGeometry>
        </mxCell>
        <mxCell id="27" value="" style="endArrow=none;html=1;fontSize=12;entryX=1;entryY=0.5;entryDx=0;entryDy=0;exitX=0.5;exitY=0;exitDx=0;exitDy=0;" parent="1" source="14" target="3" edge="1">
          <mxGeometry width="50" height="50" relative="1" as="geometry">
            <mxPoint x="490" y="200" as="sourcePoint" />
            <mxPoint x="473.78679656440363" y="160.78679656440363" as="targetPoint" />
          </mxGeometry>
        </mxCell>
        <mxCell id="28" value="" style="endArrow=none;html=1;fontSize=12;entryX=1;entryY=0.5;entryDx=0;entryDy=0;exitX=0.5;exitY=0;exitDx=0;exitDy=0;" parent="1" source="15" target="3" edge="1">
          <mxGeometry width="50" height="50" relative="1" as="geometry">
            <mxPoint x="490" y="250" as="sourcePoint" />
            <mxPoint x="480" y="125" as="targetPoint" />
          </mxGeometry>
        </mxCell>
        <mxCell id="29" value="" style="endArrow=none;html=1;fontSize=12;entryX=1;entryY=0.5;entryDx=0;entryDy=0;exitX=0.5;exitY=0;exitDx=0;exitDy=0;" parent="1" source="16" target="3" edge="1">
          <mxGeometry width="50" height="50" relative="1" as="geometry">
            <mxPoint x="490" y="300" as="sourcePoint" />
            <mxPoint x="480" y="125" as="targetPoint" />
          </mxGeometry>
        </mxCell>
        <mxCell id="30" value="一致性" style="rounded=1;whiteSpace=wrap;html=1;fontSize=14;fillColor=#d5e8d4;strokeColor=#82b366;fontStyle=1" parent="1" vertex="1">
          <mxGeometry x="100" y="420" width="120" height="60" as="geometry" />
        </mxCell>
        <mxCell id="31" value="清晰性" style="rounded=1;whiteSpace=wrap;html=1;fontSize=14;fillColor=#d5e8d4;strokeColor=#82b366;fontStyle=1" parent="1" vertex="1">
          <mxGeometry x="240" y="420" width="120" height="60" as="geometry" />
        </mxCell>
        <mxCell id="32" value="可读性" style="rounded=1;whiteSpace=wrap;html=1;fontSize=14;fillColor=#d5e8d4;strokeColor=#82b366;fontStyle=1" parent="1" vertex="1">
          <mxGeometry x="380" y="420" width="120" height="60" as="geometry" />
        </mxCell>
        <mxCell id="33" value="实用性" style="rounded=1;whiteSpace=wrap;html=1;fontSize=14;fillColor=#d5e8d4;strokeColor=#82b366;fontStyle=1" parent="1" vertex="1">
          <mxGeometry x="520" y="420" width="120" height="60" as="geometry" />
        </mxCell>
        <mxCell id="34" value="代码风格最佳实践" style="text;html=1;strokeColor=none;fillColor=none;align=center;verticalAlign=middle;whiteSpace=wrap;rounded=0;fontSize=18;fontStyle=1" parent="1" vertex="1">
          <mxGeometry x="240" y="500" width="230" height="30" as="geometry" />
        </mxCell>
        <mxCell id="35" value="命名规范" style="swimlane;fontStyle=0;childLayout=stackLayout;horizontal=1;startSize=30;horizontalStack=0;resizeParent=1;resizeParentMax=0;resizeLast=0;collapsible=1;marginBottom=0;whiteSpace=wrap;html=1;fontSize=14;fillColor=#ffe6cc;strokeColor=#d79b00;" parent="1" vertex="1">
          <mxGeometry x="80" y="540" width="200" height="120" as="geometry" />
        </mxCell>
        <mxCell id="36" value="• 类名使用首字母大写驼峰式" style="text;strokeColor=none;fillColor=none;align=left;verticalAlign=middle;spacingLeft=4;spacingRight=4;overflow=hidden;points=[[0,0.5],[1,0.5]];portConstraint=eastwest;rotatable=0;whiteSpace=wrap;html=1;fontSize=12;" parent="35" vertex="1">
          <mxGeometry y="30" width="200" height="30" as="geometry" />
        </mxCell>
        <mxCell id="37" value="• 函数和变量名使用小写下划线式" style="text;strokeColor=none;fillColor=none;align=left;verticalAlign=middle;spacingLeft=4;spacingRight=4;overflow=hidden;points=[[0,0.5],[1,0.5]];portConstraint=eastwest;rotatable=0;whiteSpace=wrap;html=1;fontSize=12;" parent="35" vertex="1">
          <mxGeometry y="60" width="200" height="30" as="geometry" />
        </mxCell>
        <mxCell id="38" value="• 常量使用大写下划线式" style="text;strokeColor=none;fillColor=none;align=left;verticalAlign=middle;spacingLeft=4;spacingRight=4;overflow=hidden;points=[[0,0.5],[1,0.5]];portConstraint=eastwest;rotatable=0;whiteSpace=wrap;html=1;fontSize=12;" parent="35" vertex="1">
          <mxGeometry y="90" width="200" height="30" as="geometry" />
        </mxCell>
        <mxCell id="39" value="格式化规范" style="swimlane;fontStyle=0;childLayout=stackLayout;horizontal=1;startSize=30;horizontalStack=0;resizeParent=1;resizeParentMax=0;resizeLast=0;collapsible=1;marginBottom=0;whiteSpace=wrap;html=1;fontSize=14;fillColor=#ffe6cc;strokeColor=#d79b00;" parent="1" vertex="1">
          <mxGeometry x="300" y="540" width="200" height="120" as="geometry" />
        </mxCell>
        <mxCell id="40" value="• 使用4个空格缩进，不用制表符" style="text;strokeColor=none;fillColor=none;align=left;verticalAlign=middle;spacingLeft=4;spacingRight=4;overflow=hidden;points=[[0,0.5],[1,0.5]];portConstraint=eastwest;rotatable=0;whiteSpace=wrap;html=1;fontSize=12;" parent="39" vertex="1">
          <mxGeometry y="30" width="200" height="30" as="geometry" />
        </mxCell>
        <mxCell id="41" value="• 每行代码不超过79个字符" style="text;strokeColor=none;fillColor=none;align=left;verticalAlign=middle;spacingLeft=4;spacingRight=4;overflow=hidden;points=[[0,0.5],[1,0.5]];portConstraint=eastwest;rotatable=0;whiteSpace=wrap;html=1;fontSize=12;" parent="39" vertex="1">
          <mxGeometry y="60" width="200" height="30" as="geometry" />
        </mxCell>
        <mxCell id="42" value="• 使用空行分隔函数和类" style="text;strokeColor=none;fillColor=none;align=left;verticalAlign=middle;spacingLeft=4;spacingRight=4;overflow=hidden;points=[[0,0.5],[1,0.5]];portConstraint=eastwest;rotatable=0;whiteSpace=wrap;html=1;fontSize=12;" parent="39" vertex="1">
          <mxGeometry y="90" width="200" height="30" as="geometry" />
        </mxCell>
        <mxCell id="43" value="文档与测试" style="swimlane;fontStyle=0;childLayout=stackLayout;horizontal=1;startSize=30;horizontalStack=0;resizeParent=1;resizeParentMax=0;resizeLast=0;collapsible=1;marginBottom=0;whiteSpace=wrap;html=1;fontSize=14;fillColor=#ffe6cc;strokeColor=#d79b00;" parent="1" vertex="1">
          <mxGeometry x="520" y="540" width="200" height="120" as="geometry" />
        </mxCell>
        <mxCell id="44" value="• 为函数和类编写文档字符串" style="text;strokeColor=none;fillColor=none;align=left;verticalAlign=middle;spacingLeft=4;spacingRight=4;overflow=hidden;points=[[0,0.5],[1,0.5]];portConstraint=eastwest;rotatable=0;whiteSpace=wrap;html=1;fontSize=12;" parent="43" vertex="1">
          <mxGeometry y="30" width="200" height="30" as="geometry" />
        </mxCell>
        <mxCell id="45" value="• 编写单元测试保证代码质量" style="text;strokeColor=none;fillColor=none;align=left;verticalAlign=middle;spacingLeft=4;spacingRight=4;overflow=hidden;points=[[0,0.5],[1,0.5]];portConstraint=eastwest;rotatable=0;whiteSpace=wrap;html=1;fontSize=12;" parent="43" vertex="1">
          <mxGeometry y="60" width="200" height="30" as="geometry" />
        </mxCell>
        <mxCell id="46" value="• 使用类型注解提高代码质量" style="text;strokeColor=none;fillColor=none;align=left;verticalAlign=middle;spacingLeft=4;spacingRight=4;overflow=hidden;points=[[0,0.5],[1,0.5]];portConstraint=eastwest;rotatable=0;whiteSpace=wrap;html=1;fontSize=12;" parent="43" vertex="1">
          <mxGeometry y="90" width="200" height="30" as="geometry" />
        </mxCell>
        <mxCell id="47" value="Python 编码要点" style="text;html=1;strokeColor=none;fillColor=none;align=center;verticalAlign=middle;whiteSpace=wrap;rounded=0;fontSize=18;fontStyle=1" parent="1" vertex="1">
          <mxGeometry x="240" y="680" width="230" height="30" as="geometry" />
        </mxCell>
        <mxCell id="48" value="&lt;span style=&quot;font-size: 12px;&quot;&gt;• 使用列表推导式和生成器表达式&lt;br&gt;• 考虑使用生成器而非列表&lt;br&gt;• 使用with语句管理上下文&lt;br&gt;• 用异常替代错误返回值&lt;/span&gt;" style="rounded=0;whiteSpace=wrap;html=1;fontSize=14;fillColor=#e1d5e7;strokeColor=#9673a6;align=left;spacingLeft=10;" parent="1" vertex="1">
          <mxGeometry x="80" y="730" width="220" height="80" as="geometry" />
        </mxCell>
        <mxCell id="49" value="&lt;span style=&quot;font-size: 12px;&quot;&gt;• 理解Python的内存管理机制&lt;br&gt;• 合理使用迭代器和生成器&lt;br&gt;• 正确处理变量作用域&lt;br&gt;• 避免使用全局变量&lt;/span&gt;" style="rounded=0;whiteSpace=wrap;html=1;fontSize=14;fillColor=#e1d5e7;strokeColor=#9673a6;align=left;spacingLeft=10;" parent="1" vertex="1">
          <mxGeometry x="310" y="730" width="220" height="80" as="geometry" />
        </mxCell>
        <mxCell id="50" value="&lt;span style=&quot;font-size: 12px;&quot;&gt;• 遵循SOLID原则&lt;br&gt;• 使用装饰器重用代码&lt;br&gt;• 合理使用继承和组合&lt;br&gt;• 使用虚拟环境管理依赖&lt;/span&gt;" style="rounded=0;whiteSpace=wrap;html=1;fontSize=14;fillColor=#e1d5e7;strokeColor=#9673a6;align=left;spacingLeft=10;" parent="1" vertex="1">
          <mxGeometry x="540" y="730" width="220" height="80" as="geometry" />
        </mxCell>
        <mxCell id="51" value="PEP 8 代码风格指南" style="rounded=1;whiteSpace=wrap;html=1;fontSize=14;fillColor=#fff2cc;strokeColor=#d6b656;fontStyle=1" parent="1" vertex="1">
          <mxGeometry x="115" y="830" width="180" height="40" as="geometry" />
        </mxCell>
        <mxCell id="52" value="PEP 257 文档字符串规范" style="rounded=1;whiteSpace=wrap;html=1;fontSize=14;fillColor=#fff2cc;strokeColor=#d6b656;fontStyle=1" parent="1" vertex="1">
          <mxGeometry x="310" y="830" width="190" height="40" as="geometry" />
        </mxCell>
        <mxCell id="53" value="PEP 20 Python之禅" style="rounded=1;whiteSpace=wrap;html=1;fontSize=14;fillColor=#fff2cc;strokeColor=#d6b656;fontStyle=1" parent="1" vertex="1">
          <mxGeometry x="515" y="830" width="180" height="40" as="geometry" />
        </mxCell>
        <mxCell id="54" value="相关PEP文档" style="text;html=1;strokeColor=none;fillColor=none;align=center;verticalAlign=middle;whiteSpace=wrap;rounded=0;fontSize=14;fontStyle=1" parent="1" vertex="1">
          <mxGeometry x="115" y="800" width="130" height="30" as="geometry" />
        </mxCell>
        <mxCell id="55" value="核心设计原则" style="text;html=1;strokeColor=none;fillColor=none;align=center;verticalAlign=middle;whiteSpace=wrap;rounded=0;fontSize=14;fontStyle=1" parent="1" vertex="1">
          <mxGeometry x="320" y="390" width="100" height="30" as="geometry" />
        </mxCell>
        <mxCell id="56" value="示例：良好的Python风格" style="text;html=1;strokeColor=none;fillColor=none;align=left;verticalAlign=middle;whiteSpace=wrap;rounded=0;fontSize=14;fontStyle=1" parent="1" vertex="1">
          <mxGeometry x="115" y="880" width="230" height="30" as="geometry" />
        </mxCell>
        <mxCell id="57" value="def calculate_average(numbers: list[float]) -&gt; float:&#xa;    &quot;&quot;&quot;计算数字列表的平均值。&#xa;&#xa;    Args:&#xa;        numbers: 需要计算平均值的数字列表&#xa;&#xa;    Returns:&#xa;        列表中所有数字的平均值&#xa;&#xa;    Raises:&#xa;        ValueError: 当列表为空时抛出&#xa;    &quot;&quot;&quot;&#xa;    if not numbers:&#xa;        raise ValueError(&quot;无法计算空列表的平均值&quot;)&#xa;&#xa;    return sum(numbers) / len(numbers)" style="text;html=1;strokeColor=#b85450;fillColor=#f8cecc;align=left;verticalAlign=top;whiteSpace=wrap;rounded=1;fontSize=12;spacingLeft=4;spacingRight=4;" parent="1" vertex="1">
          <mxGeometry x="80" y="910" width="345" height="290" as="geometry" />
        </mxCell>
        <mxCell id="58" value="class DataProcessor:&#xa;    &quot;&quot;&quot;数据处理类，负责清洗和转换数据。&quot;&quot;&quot;&#xa;&#xa;    def __init__(self, data_source: str):&#xa;        self.data_source = data_source&#xa;        self.processed_data = None&#xa;&#xa;    def process(self) -&gt; None:&#xa;        &quot;&quot;&quot;处理数据源中的数据。&quot;&quot;&quot;&#xa;        with open(self.data_source, &#39;r&#39;) as file:&#xa;            # 使用上下文管理器处理文件操作&#xa;            raw_data = file.readlines()&#xa;            &#xa;        # 使用列表推导式进行数据转换&#xa;        self.processed_data = [&#xa;            line.strip().lower() &#xa;            for line in raw_data &#xa;            if line.strip()&#xa;        ]" style="text;html=1;strokeColor=#b85450;fillColor=#f8cecc;align=left;verticalAlign=top;whiteSpace=wrap;rounded=1;fontSize=12;spacingLeft=4;spacingRight=4;" parent="1" vertex="1">
          <mxGeometry x="470" y="910" width="330" height="290" as="geometry" />
        </mxCell>
      </root>
    </mxGraphModel>
  </diagram>
</mxfile>
